<?xml version="1.0" standalone="no"?>
<!DOCTYPE svg PUBLIC "-//W3C//DTD SVG 20010904//EN"
 "http://www.w3.org/TR/2001/REC-SVG-20010904/DTD/svg10.dtd">
<svg version="1.0" xmlns="http://www.w3.org/2000/svg"
 width="446.000000pt" height="446.000000pt" viewBox="0 0 446.000000 446.000000"
 preserveAspectRatio="xMidYMid meet">
<metadata>
Created by potrace 1.14, written by Peter Selinger 2001-2017
</metadata>
<g transform="translate(0.000000,446.000000) scale(0.100000,-0.100000)"
fill="#000000" stroke="none">
<path d="M2192 3530 c-12 -12 -22 -17 -22 -13 0 4 -18 -11 -39 -35 -41 -44
-46 -67 -19 -86 16 -12 22 -28 19 -53 -1 -17 -28 -16 -38 1 -15 25 -67 43
-122 42 -58 -1 -72 -13 -46 -40 15 -15 10 -16 -63 -16 -71 0 -83 -3 -108 -25
-73 -62 -90 -75 -99 -76 -5 0 -115 -2 -244 -2 l-234 -2 -8 -23 c-5 -13 -7 -28
-3 -33 3 -5 0 -9 -7 -9 -7 0 -10 -2 -7 -6 5 -4 2 -22 -17 -94 -2 -8 -4 -16 -5
-17 -3 -4 -6 -13 -15 -58 -4 -22 -10 -49 -12 -60 -3 -11 -6 -28 -6 -37 -1 -10
-5 -18 -10 -18 -4 0 -5 -5 -2 -10 4 -6 2 -16 -3 -23 -5 -7 -9 -25 -8 -40 1
-15 -4 -33 -11 -39 -7 -6 -11 -13 -9 -17 2 -3 -63 -6 -145 -6 -87 0 -149 -4
-149 -10 0 -5 -4 -5 -10 1 -6 6 -33 8 -66 4 -30 -3 -57 -3 -60 2 -3 4 -13 4
-22 -1 -9 -4 -23 -6 -30 -4 -20 8 -37 -13 -40 -48 -1 -18 -6 -37 -10 -43 -5
-6 -8 -23 -7 -38 0 -16 -3 -28 -8 -28 -5 0 -7 -5 -5 -12 3 -7 -1 -37 -8 -67
-7 -30 -11 -58 -8 -63 3 -4 0 -8 -5 -8 -6 0 -10 -4 -9 -8 2 -4 -9 -23 -24 -41
-16 -18 -28 -30 -28 -28 0 3 -34 -29 -75 -70 -71 -72 -90 -103 -63 -103 6 0 9
-3 5 -6 -5 -5 14 -84 30 -124 8 -20 14 -42 17 -62 1 -10 5 -21 9 -24 4 -4 7
-16 7 -26 0 -11 4 -17 8 -14 9 5 7 -75 -2 -114 -4 -14 -8 -38 -10 -55 -2 -16
-7 -38 -11 -48 -4 -10 -8 -31 -9 -47 0 -17 -5 -30 -10 -30 -5 0 -6 -3 -3 -6 3
-4 2 -15 -3 -25 -7 -12 -7 -20 0 -24 8 -5 8 -11 0 -20 -6 -7 -12 -26 -14 -41
-6 -46 -10 -58 -21 -66 -6 -5 -5 -8 4 -8 10 0 11 -3 2 -13 -8 -11 -7 -18 7
-30 9 -8 24 -17 32 -19 8 -2 23 -11 35 -22 37 -34 88 -50 162 -51 48 -1 70 2
65 9 -4 8 -1 8 9 0 16 -12 29 -12 48 0 9 6 12 5 8 -1 -8 -13 122 -11 142 1 10
6 12 5 7 -2 -10 -16 7 -15 23 1 8 6 11 7 8 1 -4 -8 23 -11 91 -10 98 1 128 9
116 28 -5 7 -2 8 5 3 7 -4 20 1 31 11 32 34 58 52 64 47 6 -6 10 13 7 30 -1 5
3 6 9 2 14 -9 42 14 33 28 -3 5 -1 7 5 3 6 -3 16 0 24 7 14 14 71 29 63 17 -6
-10 107 -6 124 4 9 6 12 5 8 -1 -4 -6 2 -13 13 -16 11 -3 23 -1 26 4 4 6 11 6
19 -1 10 -8 15 -8 20 0 5 8 11 8 21 -1 11 -9 14 -8 14 2 0 11 2 11 9 1 9 -14
32 -13 43 3 5 6 8 6 8 -1 0 -7 28 -12 78 -13 42 -2 95 -4 117 -5 22 -1 46 3
54 8 11 9 13 8 7 -2 -6 -11 0 -13 25 -12 40 2 79 -9 79 -21 0 -5 7 -9 15 -9 8
0 15 -5 15 -10 0 -6 3 -9 8 -8 4 1 18 -5 32 -13 62 -39 152 -89 160 -89 5 0
10 -4 12 -9 6 -17 46 -22 61 -7 8 8 17 12 21 9 3 -4 6 -1 6 5 0 7 6 12 14 12
8 0 21 6 28 13 7 6 36 24 63 39 28 14 49 31 48 37 -2 6 3 8 11 5 7 -3 20 1 27
8 8 7 21 14 29 16 8 2 18 8 21 14 6 10 177 20 377 22 50 0 92 4 92 7 0 9 21 6
38 -4 6 -5 12 -5 12 0 0 4 40 8 89 8 84 0 90 -1 124 -31 20 -17 48 -39 62 -50
14 -10 44 -35 66 -55 39 -35 41 -36 122 -35 45 1 88 5 96 10 10 6 12 5 7 -2
-10 -16 7 -15 23 1 8 6 11 7 8 1 -8 -13 181 -13 202 0 10 6 12 5 7 -2 -10 -16
7 -15 23 1 8 6 11 7 8 1 -4 -7 22 -10 83 -10 87 1 90 2 132 36 78 64 77 62 67
116 -5 27 -11 57 -12 66 -2 10 -6 20 -9 24 -4 3 -4 13 -1 22 5 11 3 13 -8 7
-12 -8 -12 -6 0 8 8 10 9 17 3 17 -6 0 -11 8 -11 18 1 17 -8 77 -11 77 -1 0
-4 14 -6 30 -3 17 -7 37 -11 45 -3 8 -5 21 -4 29 1 8 -3 18 -11 22 -10 7 -10
9 1 9 11 0 10 4 -5 16 -10 8 -13 13 -7 9 9 -4 13 2 12 17 -1 26 4 50 19 88 5
14 10 28 11 32 1 4 3 13 5 20 10 32 19 74 18 81 -1 4 3 7 9 7 8 0 7 6 -2 17
-9 11 -10 14 -2 10 15 -9 29 35 17 54 -4 8 -3 9 4 5 7 -4 12 -1 12 8 0 18
-142 166 -159 166 -6 0 -11 5 -11 11 0 15 -26 39 -35 31 -4 -4 -6 -2 -5 3 1 6
2 23 1 38 -1 20 -5 26 -13 21 -10 -6 -10 -5 -1 8 7 8 10 17 7 20 -5 6 -14 49
-17 81 -1 9 -4 17 -7 17 -3 0 -6 12 -7 28 -1 48 -3 53 -13 47 -5 -3 -10 -1
-10 4 0 6 4 11 9 11 6 0 6 11 0 29 l-10 29 -107 2 c-59 1 -175 3 -258 3 -92 1
-151 6 -152 12 -1 14 -10 50 -12 50 -1 0 -4 13 -6 30 -3 16 -11 36 -17 44 -9
11 -9 13 0 8 8 -5 9 1 1 25 -6 18 -13 40 -16 48 -3 8 -6 22 -7 30 -5 45 -29
126 -39 132 -8 6 -8 8 1 8 11 0 8 14 -17 85 -7 19 -17 20 -231 22 -123 0 -229
2 -236 2 -6 1 -27 17 -47 37 -20 20 -36 32 -36 28 0 -5 -7 1 -15 13 -16 23
-52 36 -60 22 -3 -4 -16 -4 -29 1 -15 5 -27 5 -35 -3 -8 -8 -11 -8 -11 3 0 10
-5 9 -19 -4 -14 -13 -21 -14 -27 -5 -5 8 -3 10 6 4 10 -6 12 -4 7 8 -4 10 -2
16 6 14 7 -1 11 6 9 18 -5 27 -3 26 -53 26 -54 1 -94 -14 -111 -41 -17 -27
-46 -26 -50 3 -2 14 6 31 21 46 19 18 22 27 14 40 -6 9 -16 15 -23 13 -6 -1
-9 2 -6 6 7 11 -18 39 -61 70 -40 27 -53 28 -81 2z"/>
</g>
</svg>
